# Blender 3.3.0
# www.blender.org
o Cube
v 1.518764 0.213617 -0.213617
v 1.518764 -0.213617 -0.213617
v 1.518764 0.213617 0.213617
v 1.518764 -0.213617 0.213617
v -2.784366 0.213617 -0.213617
v -2.784366 -0.213617 -0.213617
v -2.784366 0.213617 0.213617
v -2.784366 -0.213617 0.213617
v -4.626443 0.000000 0.000000
v -2.784366 -0.713674 -0.713674
v -2.784366 -0.713674 0.713674
v -2.784366 0.713674 0.713674
v -2.784366 0.713674 -0.713674
v 1.518764 0.517852 0.517852
v 1.518764 -0.517852 -0.517852
v 1.518764 0.517852 -0.517852
v 1.518764 -0.517852 0.517852
v 1.883885 -0.517852 -0.517852
v 1.883885 -0.517852 0.517852
v 1.883885 0.517852 -0.517852
v 1.883885 0.517852 0.517852
vn -0.0000 1.0000 -0.0000
vn -0.0000 -0.0000 1.0000
vn 1.0000 -0.0000 -0.0000
vn -0.0000 -1.0000 -0.0000
vn -0.0000 -0.0000 -1.0000
vn -0.3613 -0.0000 0.9325
vn -0.3613 0.9325 -0.0000
vn -0.3613 -0.9325 -0.0000
vn -1.0000 -0.0000 -0.0000
vn -0.3613 -0.0000 -0.9325
s 0
f 1//1 5//1 7//1 3//1
f 4//2 3//2 7//2 8//2
f 6//3 8//3 11//3 10//3
f 6//4 2//4 4//4 8//4
f 6//5 5//5 1//5 2//5
f 9//6 11//6 12//6
f 9//7 12//7 13//7
f 9//8 10//8 11//8
f 16//1 14//1 21//1 20//1
f 1//9 3//9 14//9 16//9
f 18//3 20//3 21//3 19//3
f 7//3 5//3 13//3 12//3
f 5//3 6//3 10//3 13//3
f 9//10 13//10 10//10
f 8//3 7//3 12//3 11//3
f 14//2 17//2 19//2 21//2
f 17//4 15//4 18//4 19//4
f 15//5 16//5 20//5 18//5
f 3//9 4//9 17//9 14//9
f 2//9 1//9 16//9 15//9
f 4//9 2//9 15//9 17//9
